<?xml version="1.0" standalone="no"?>
<!DOCTYPE svg PUBLIC "-//W3C//DTD SVG 20010904//EN"
 "http://www.w3.org/TR/2001/REC-SVG-20010904/DTD/svg10.dtd">
<svg version="1.0" xmlns="http://www.w3.org/2000/svg"
 width="1280.000000pt" height="758.000000pt" viewBox="0 0 1280.000000 758.000000"
 preserveAspectRatio="xMidYMid meet">
<metadata>
Created by potrace 1.15, written by Peter Selinger 2001-2017
</metadata>
<g transform="translate(0.000000,758.000000) scale(0.100000,-0.100000)"
fill="#000000" stroke="none">
<path d="M7570 7458 c0 -125 27 -348 54 -448 9 -30 14 -55 12 -57 -1 -1 -149
76 -329 172 -179 96 -330 175 -335 175 -5 0 -14 -24 -21 -52 -39 -171 -16
-333 72 -511 30 -59 48 -106 41 -103 -44 17 -252 77 -324 94 -174 41 -416 72
-567 72 l-72 0 5 -52 c20 -198 112 -384 251 -509 27 -23 41 -40 33 -37 -107
38 -307 68 -455 68 -129 0 -347 -37 -447 -75 -12 -5 -18 10 -27 70 -7 42 -19
93 -28 113 -22 55 -94 162 -108 162 -28 0 -136 -64 -183 -109 -58 -56 -127
-158 -137 -201 -12 -57 -20 -37 -21 54 -1 55 -9 125 -23 179 -21 89 -77 237
-89 237 -11 0 -109 -141 -156 -226 -45 -78 -130 -269 -158 -352 l-15 -44 -28
58 c-31 64 -140 180 -218 233 -27 18 -50 31 -51 29 -2 -1 -19 -77 -38 -167
l-34 -164 -31 54 c-132 231 -361 452 -590 567 l-61 32 -4 -83 c-6 -131 10
-301 37 -414 32 -133 32 -138 3 -119 -46 29 -638 346 -646 346 -13 0 -32 -129
-32 -219 0 -134 47 -304 114 -410 14 -22 26 -43 26 -45 0 -2 -30 7 -68 20
-103 38 -314 91 -447 113 -112 19 -344 41 -423 41 l-35 0 6 -67 c17 -195 115
-382 259 -499 26 -21 46 -39 45 -40 -1 -2 -34 6 -72 17 -244 68 -549 67 -790
-4 -74 -21 -80 -25 -77 -48 6 -53 62 -151 121 -210 62 -61 61 -62 -11 -42 -47
12 -231 19 -310 11 -101 -10 -229 -45 -325 -88 l-66 -30 134 -106 c74 -58 149
-117 168 -132 l34 -27 -167 -79 c-91 -44 -166 -82 -166 -86 0 -10 57 -89 89
-124 42 -46 128 -106 196 -137 82 -37 179 -53 279 -46 l80 5 -66 -41 c-36 -23
-190 -118 -342 -212 -151 -93 -275 -173 -276 -176 0 -4 56 -6 125 -5 69 0 125
0 125 -1 0 -8 -123 -67 -200 -97 -125 -47 -198 -65 -293 -73 -43 -3 -76 -9
-75 -14 6 -16 222 -251 244 -265 22 -15 20 -17 -79 -67 -56 -29 -102 -58 -102
-65 0 -19 149 -126 236 -168 43 -22 78 -41 79 -44 1 -16 -343 -204 -430 -236
-25 -8 -65 -19 -89 -22 l-44 -7 119 -72 c66 -40 138 -79 159 -86 l40 -14 -75
-7 c-191 -17 -181 -14 -249 -68 -48 -39 -69 -63 -88 -106 -24 -55 -24 -56 -9
-126 9 -39 17 -94 17 -123 l2 -52 42 37 c88 77 255 140 338 127 23 -3 76 -13
117 -22 62 -13 71 -18 50 -24 -193 -58 -211 -68 -235 -137 l-18 -48 -86 -20
c-110 -24 -244 -23 -322 3 l-57 20 34 -75 c75 -166 158 -264 272 -325 l63 -34
-63 -38 c-99 -59 -245 -173 -245 -190 0 -9 9 -15 22 -15 19 0 114 -28 124 -36
3 -2 -31 -40 -74 -84 -43 -44 -76 -82 -74 -85 3 -2 52 7 109 20 58 14 130 25
160 25 52 0 155 -21 168 -35 9 -8 -82 -85 -131 -111 l-39 -21 52 -22 c29 -12
80 -26 114 -30 l61 -7 -33 -17 c-67 -36 -179 -57 -301 -57 -64 1 -136 5 -161
10 -25 4 -46 7 -48 5 -7 -7 188 -169 240 -200 84 -50 145 -65 270 -66 60 0
108 -4 106 -9 -10 -27 -201 -212 -232 -225 -20 -9 -34 -20 -31 -25 3 -6 -2
-10 -11 -10 -39 0 5 -19 92 -39 108 -25 127 -25 219 -6 141 30 261 112 331
226 21 33 38 58 40 56 2 -2 -1 -20 -7 -42 -18 -64 -6 -232 20 -288 l22 -47 31
17 c59 34 224 206 285 298 60 91 135 251 148 315 7 37 30 80 43 80 4 0 6 -73
4 -162 l-3 -161 33 25 34 26 -4 -130 -4 -130 33 7 c59 12 153 46 187 67 18 11
74 58 124 104 50 47 95 81 100 76 4 -4 -10 -62 -33 -127 -33 -99 -78 -267 -79
-297 0 -23 224 2 294 32 75 32 130 119 152 240 l8 45 8 -53 c10 -69 36 -117
90 -169 45 -43 268 -196 276 -189 2 3 -3 26 -12 53 -33 102 -30 206 9 298 l15
38 31 -59 c43 -80 122 -197 178 -264 l46 -54 6 89 c3 50 14 116 24 148 l19 58
26 -58 c50 -109 146 -214 240 -262 39 -20 130 -45 137 -37 3 2 -10 35 -28 73
-33 68 -34 69 -37 241 -2 95 0 172 5 172 19 0 114 -110 193 -223 l83 -118 93
178 c51 98 107 213 125 256 17 43 33 76 36 74 2 -2 -1 -17 -7 -33 -12 -30 -6
-174 10 -272 16 -93 97 -255 173 -347 l25 -29 49 54 c82 89 136 160 203 260
62 94 160 281 160 306 0 7 3 15 8 17 12 8 -5 -361 -21 -453 -8 -47 -18 -93
-22 -102 -9 -22 -17 -25 255 101 117 54 202 99 213 114 20 26 52 142 63 224 9
72 20 74 27 6 8 -77 57 -172 113 -222 55 -48 122 -75 269 -106 61 -14 125 -29
144 -34 19 -6 35 -10 36 -8 0 1 7 20 14 42 38 114 146 292 166 273 4 -4 10
-54 12 -112 3 -58 9 -106 12 -106 28 2 156 241 191 358 l22 73 47 -68 c43 -64
52 -71 141 -115 93 -45 251 -103 300 -110 22 -3 27 3 43 51 12 36 20 101 24
188 3 73 8 133 10 133 11 0 238 -42 241 -45 2 -1 -27 -53 -64 -115 -79 -134
-121 -221 -140 -292 -18 -68 -19 -122 -1 -115 6 3 68 30 137 60 189 83 169 88
172 -47 l3 -115 185 131 c213 151 285 198 300 198 7 0 9 -19 5 -57 -15 -134
33 -301 110 -377 l38 -38 54 54 c30 29 109 115 175 191 l120 138 20 -26 c10
-14 25 -25 31 -25 7 0 53 29 102 64 l90 64 50 -47 c67 -63 202 -163 257 -190
25 -12 62 -22 82 -24 32 -2 42 3 60 26 20 27 21 39 18 173 -1 79 0 144 2 144
3 0 12 -33 21 -74 25 -110 28 -113 101 -83 79 32 155 81 225 145 l56 51 32
-49 c18 -28 61 -82 97 -120 l65 -71 20 46 c11 25 31 100 45 168 15 67 30 126
34 130 4 5 18 -22 30 -60 26 -78 68 -129 145 -174 28 -16 53 -29 57 -29 10 0
62 141 99 268 17 61 35 112 39 112 9 0 67 -131 113 -254 l34 -90 56 100 c30
54 71 130 91 168 33 66 36 68 45 45 17 -46 51 -220 58 -294 8 -102 22 -104
124 -19 190 158 375 396 424 544 6 21 9 14 14 -35 6 -62 34 -115 71 -135 16
-8 30 11 118 163 113 194 180 326 208 407 l19 55 5 -262 c3 -144 8 -264 11
-267 9 -9 108 93 171 175 64 84 131 192 143 229 4 14 20 49 36 78 l28 53 6
-38 c4 -21 15 -56 25 -78 10 -22 27 -60 38 -85 10 -25 37 -69 58 -99 79 -109
93 -116 171 -84 39 17 43 22 49 63 3 25 15 90 25 144 11 55 23 143 26 197 3
54 9 103 13 109 4 7 77 -30 206 -106 109 -64 212 -126 227 -138 39 -29 49 -10
44 79 -7 92 -34 173 -112 327 -36 70 -65 130 -65 132 0 3 10 1 23 -4 12 -5 90
-27 172 -50 83 -23 190 -57 238 -76 49 -20 91 -33 95 -29 3 3 -1 20 -10 38 -9
18 -19 57 -23 88 -11 99 -54 172 -168 284 -56 55 -132 123 -169 150 -37 27
-66 50 -65 51 2 2 46 -14 97 -36 52 -22 100 -40 106 -40 62 -1 -48 193 -223
393 -52 60 -93 110 -91 113 3 2 119 -43 258 -101 282 -118 306 -123 295 -57
-11 63 -45 182 -60 213 -37 70 -104 127 -225 190 l-65 34 55 6 c30 4 99 10
152 14 62 4 98 11 101 19 3 8 -98 87 -254 199 l-259 187 -120 0 -120 0 0 121
0 120 28 -21 c15 -12 39 -37 55 -55 30 -37 137 -95 174 -95 12 0 23 2 23 4 0
3 -18 76 -41 163 -44 170 -106 317 -173 411 -21 29 -36 55 -34 57 3 3 70 -7
150 -21 81 -15 153 -24 162 -21 25 10 18 75 -9 90 -11 7 -53 36 -92 66 l-71
54 31 17 c55 29 72 92 42 149 -21 42 -102 110 -160 136 -28 13 -84 33 -125 45
-41 12 -103 32 -137 46 -34 13 -82 24 -109 24 -56 0 -174 19 -174 29 0 3 25
23 55 45 51 37 196 178 265 259 20 23 29 42 24 47 -5 5 -52 17 -104 26 -143
25 -322 13 -470 -30 -14 -4 4 10 39 31 95 57 182 141 215 208 40 82 72 245 47
245 -5 0 -131 -52 -281 -115 -151 -63 -274 -114 -276 -112 -1 1 40 61 91 132
l94 130 0 109 1 108 -56 -51 c-85 -78 -245 -159 -404 -205 l-55 -16 129 129
130 130 -141 -6 -140 -6 8 64 c12 101 37 206 64 273 13 33 21 64 17 68 -12 12
-97 -20 -246 -91 -71 -34 -131 -60 -133 -58 -14 15 107 224 201 347 35 47 63
86 62 88 -2 1 -44 -6 -94 -17 -162 -35 -275 -92 -382 -191 -38 -36 -58 -48
-53 -35 22 70 33 127 33 178 0 31 -3 57 -6 57 -4 0 -37 -27 -75 -61 -38 -34
-69 -58 -69 -54 0 4 9 24 20 44 67 123 79 217 35 270 -33 38 -76 52 -163 53
l-70 0 24 35 c12 19 26 55 30 80 7 48 -2 167 -15 190 -5 10 -50 -34 -154 -151
-81 -90 -154 -170 -162 -176 -8 -7 2 23 22 66 20 44 38 99 41 123 l5 44 -40
-6 -40 -7 -6 83 c-8 120 -43 206 -134 336 -2 2 -38 -13 -80 -34 -123 -61 -193
-139 -261 -295 -9 -21 -11 -11 -11 57 -1 107 -21 207 -65 322 -20 51 -39 97
-42 102 -7 12 -52 -46 -127 -161 -71 -111 -104 -178 -162 -332 l-48 -128 -18
40 c-44 98 -135 199 -225 249 -31 18 -57 31 -58 29 -2 -2 -15 -66 -30 -143
-15 -77 -30 -148 -32 -158 -4 -14 -16 -1 -49 51 -145 237 -359 437 -587 553
l-58 29 0 -122z m-2093 -1330 c-3 -7 -5 -2 -5 12 0 14 2 19 5 13 2 -7 2 -19 0
-25z"/>
</g>
</svg>
